<mxfile host="app.diagrams.net" agent="Mozilla/5.0 (Windows NT 10.0; Win64; x64) AppleWebKit/537.36 (KHTML, like Gecko) Chrome/133.0.0.0 Safari/537.36 OPR/118.0.0.0" version="26.2.14">
  <diagram name="Sayfa -1" id="KLiLc5vAUubbsRQLizZz">
    <mxGraphModel dx="1629" dy="889" grid="1" gridSize="10" guides="1" tooltips="1" connect="1" arrows="1" fold="1" page="1" pageScale="1" pageWidth="1169" pageHeight="1654" math="0" shadow="0">
      <root>
        <mxCell id="0" />
        <mxCell id="1" parent="0" />
        <mxCell id="mDHxfYU0JQhifHVUSU3j-7" value="Application" style="swimlane;whiteSpace=wrap;html=1;startSize=23;" vertex="1" parent="1">
          <mxGeometry x="395" y="20" width="190" height="200" as="geometry" />
        </mxCell>
        <mxCell id="mDHxfYU0JQhifHVUSU3j-2" value="+ id: string&lt;br&gt;+ userID: string&lt;br&gt;+ userpass: string&lt;br&gt;+ movieList: string" style="text;html=1;align=left;verticalAlign=middle;whiteSpace=wrap;rounded=0;" vertex="1" parent="mDHxfYU0JQhifHVUSU3j-7">
          <mxGeometry x="10" y="50" width="110" height="30" as="geometry" />
        </mxCell>
        <mxCell id="mDHxfYU0JQhifHVUSU3j-4" value="+ signup();&lt;br&gt;+ signln();&lt;br&gt;+ movieList();&amp;nbsp;&lt;br&gt;+ sortMovies();&lt;br&gt;+ filterMovies();" style="text;html=1;align=left;verticalAlign=middle;whiteSpace=wrap;rounded=0;" vertex="1" parent="mDHxfYU0JQhifHVUSU3j-7">
          <mxGeometry x="10" y="150" width="175" height="10" as="geometry" />
        </mxCell>
        <mxCell id="mDHxfYU0JQhifHVUSU3j-10" style="edgeStyle=orthogonalEdgeStyle;rounded=0;orthogonalLoop=1;jettySize=auto;html=1;exitX=0.5;exitY=1;exitDx=0;exitDy=0;" edge="1" parent="mDHxfYU0JQhifHVUSU3j-7" source="mDHxfYU0JQhifHVUSU3j-4" target="mDHxfYU0JQhifHVUSU3j-4">
          <mxGeometry relative="1" as="geometry" />
        </mxCell>
        <mxCell id="mDHxfYU0JQhifHVUSU3j-11" value="------------------------------------------" style="text;html=1;align=center;verticalAlign=middle;whiteSpace=wrap;rounded=0;" vertex="1" parent="mDHxfYU0JQhifHVUSU3j-7">
          <mxGeometry x="10" y="100" width="170" height="30" as="geometry" />
        </mxCell>
        <mxCell id="mDHxfYU0JQhifHVUSU3j-46" style="edgeStyle=orthogonalEdgeStyle;rounded=0;orthogonalLoop=1;jettySize=auto;html=1;exitX=0.5;exitY=1;exitDx=0;exitDy=0;" edge="1" parent="mDHxfYU0JQhifHVUSU3j-7" source="mDHxfYU0JQhifHVUSU3j-4" target="mDHxfYU0JQhifHVUSU3j-4">
          <mxGeometry relative="1" as="geometry" />
        </mxCell>
        <mxCell id="mDHxfYU0JQhifHVUSU3j-117" style="edgeStyle=orthogonalEdgeStyle;rounded=0;orthogonalLoop=1;jettySize=auto;html=1;" edge="1" parent="1" source="mDHxfYU0JQhifHVUSU3j-90">
          <mxGeometry relative="1" as="geometry">
            <mxPoint x="130" y="240" as="targetPoint" />
          </mxGeometry>
        </mxCell>
        <mxCell id="mDHxfYU0JQhifHVUSU3j-90" value="Films" style="swimlane;whiteSpace=wrap;html=1;" vertex="1" parent="1">
          <mxGeometry x="30" y="280" width="200" height="200" as="geometry" />
        </mxCell>
        <mxCell id="mDHxfYU0JQhifHVUSU3j-91" value="+ 覺d: string&lt;br&gt;+ movieName: string&lt;br&gt;+ movieCategory: string&lt;br&gt;+ imdbRate: string&lt;br&gt;-------------------------------------------" style="text;html=1;align=left;verticalAlign=middle;whiteSpace=wrap;rounded=0;" vertex="1" parent="mDHxfYU0JQhifHVUSU3j-90">
          <mxGeometry y="60" width="175" height="10" as="geometry" />
        </mxCell>
        <mxCell id="mDHxfYU0JQhifHVUSU3j-92" value="+ sortMovies()&lt;br&gt;+ addNewMovie();&lt;br&gt;+ deleteMovie();&lt;br&gt;+ editMovie();" style="text;html=1;align=left;verticalAlign=middle;whiteSpace=wrap;rounded=0;" vertex="1" parent="mDHxfYU0JQhifHVUSU3j-90">
          <mxGeometry y="130" width="175" height="10" as="geometry" />
        </mxCell>
        <mxCell id="mDHxfYU0JQhifHVUSU3j-118" style="edgeStyle=orthogonalEdgeStyle;rounded=0;orthogonalLoop=1;jettySize=auto;html=1;" edge="1" parent="1" source="mDHxfYU0JQhifHVUSU3j-93">
          <mxGeometry relative="1" as="geometry">
            <mxPoint x="480" y="220" as="targetPoint" />
          </mxGeometry>
        </mxCell>
        <mxCell id="mDHxfYU0JQhifHVUSU3j-93" value="Clients" style="swimlane;whiteSpace=wrap;html=1;" vertex="1" parent="1">
          <mxGeometry x="380" y="280" width="200" height="200" as="geometry" />
        </mxCell>
        <mxCell id="mDHxfYU0JQhifHVUSU3j-94" value="+ 覺d: string&lt;br&gt;+ clientName: string&lt;br&gt;+ clientPass: string&lt;br&gt;+ moneyBalanca: int&lt;br&gt;-------------------------------------------" style="text;html=1;align=left;verticalAlign=middle;whiteSpace=wrap;rounded=0;" vertex="1" parent="mDHxfYU0JQhifHVUSU3j-93">
          <mxGeometry x="10" y="60" width="175" height="10" as="geometry" />
        </mxCell>
        <mxCell id="mDHxfYU0JQhifHVUSU3j-95" value="+ rentMovie():&lt;br&gt;+ CancelRentedMovie();&amp;nbsp;&lt;br&gt;+ buySubscribe();&lt;br&gt;+ cancelSubscribe();&lt;div&gt;&lt;br/&gt;&lt;/div&gt;" style="text;html=1;align=left;verticalAlign=middle;whiteSpace=wrap;rounded=0;" vertex="1" parent="mDHxfYU0JQhifHVUSU3j-93">
          <mxGeometry x="12.5" y="130" width="175" height="10" as="geometry" />
        </mxCell>
        <mxCell id="mDHxfYU0JQhifHVUSU3j-119" style="edgeStyle=orthogonalEdgeStyle;rounded=0;orthogonalLoop=1;jettySize=auto;html=1;" edge="1" parent="1" source="mDHxfYU0JQhifHVUSU3j-96">
          <mxGeometry relative="1" as="geometry">
            <mxPoint x="820" y="240" as="targetPoint" />
          </mxGeometry>
        </mxCell>
        <mxCell id="mDHxfYU0JQhifHVUSU3j-96" value="Credit" style="swimlane;fontStyle=0;childLayout=stackLayout;horizontal=1;startSize=30;horizontalStack=0;resizeParent=1;resizeParentMax=0;resizeLast=0;collapsible=1;marginBottom=0;whiteSpace=wrap;html=1;" vertex="1" parent="1">
          <mxGeometry x="750" y="285" width="140" height="120" as="geometry" />
        </mxCell>
        <mxCell id="mDHxfYU0JQhifHVUSU3j-97" value="+ Balance: int" style="text;strokeColor=none;fillColor=none;align=left;verticalAlign=middle;spacingLeft=4;spacingRight=4;overflow=hidden;points=[[0,0.5],[1,0.5]];portConstraint=eastwest;rotatable=0;whiteSpace=wrap;html=1;" vertex="1" parent="mDHxfYU0JQhifHVUSU3j-96">
          <mxGeometry y="30" width="140" height="30" as="geometry" />
        </mxCell>
        <mxCell id="mDHxfYU0JQhifHVUSU3j-98" value="+ getCredit();" style="text;strokeColor=none;fillColor=none;align=left;verticalAlign=middle;spacingLeft=4;spacingRight=4;overflow=hidden;points=[[0,0.5],[1,0.5]];portConstraint=eastwest;rotatable=0;whiteSpace=wrap;html=1;" vertex="1" parent="mDHxfYU0JQhifHVUSU3j-96">
          <mxGeometry y="60" width="140" height="30" as="geometry" />
        </mxCell>
        <mxCell id="mDHxfYU0JQhifHVUSU3j-99" value="+ setCredit();" style="text;strokeColor=none;fillColor=none;align=left;verticalAlign=middle;spacingLeft=4;spacingRight=4;overflow=hidden;points=[[0,0.5],[1,0.5]];portConstraint=eastwest;rotatable=0;whiteSpace=wrap;html=1;" vertex="1" parent="mDHxfYU0JQhifHVUSU3j-96">
          <mxGeometry y="90" width="140" height="30" as="geometry" />
        </mxCell>
        <mxCell id="mDHxfYU0JQhifHVUSU3j-110" style="edgeStyle=orthogonalEdgeStyle;rounded=0;orthogonalLoop=1;jettySize=auto;html=1;entryX=0.5;entryY=1;entryDx=0;entryDy=0;" edge="1" parent="1" source="mDHxfYU0JQhifHVUSU3j-100" target="mDHxfYU0JQhifHVUSU3j-93">
          <mxGeometry relative="1" as="geometry" />
        </mxCell>
        <mxCell id="mDHxfYU0JQhifHVUSU3j-100" value="Free" style="swimlane;whiteSpace=wrap;html=1;" vertex="1" parent="1">
          <mxGeometry x="120" y="540" width="200" height="160" as="geometry" />
        </mxCell>
        <mxCell id="mDHxfYU0JQhifHVUSU3j-101" value="+ 覺d: string&lt;br&gt;+ clientName: string&lt;br&gt;-------------------------------------------" style="text;html=1;align=left;verticalAlign=middle;whiteSpace=wrap;rounded=0;" vertex="1" parent="mDHxfYU0JQhifHVUSU3j-100">
          <mxGeometry x="12.5" y="60" width="175" height="10" as="geometry" />
        </mxCell>
        <mxCell id="mDHxfYU0JQhifHVUSU3j-102" value="+ buyMovie();&lt;br&gt;+ requestMovie();" style="text;html=1;align=left;verticalAlign=middle;whiteSpace=wrap;rounded=0;" vertex="1" parent="mDHxfYU0JQhifHVUSU3j-100">
          <mxGeometry x="12.5" y="110" width="175" height="10" as="geometry" />
        </mxCell>
        <mxCell id="mDHxfYU0JQhifHVUSU3j-109" style="edgeStyle=orthogonalEdgeStyle;rounded=0;orthogonalLoop=1;jettySize=auto;html=1;entryX=0.5;entryY=1;entryDx=0;entryDy=0;" edge="1" parent="1" source="mDHxfYU0JQhifHVUSU3j-103" target="mDHxfYU0JQhifHVUSU3j-93">
          <mxGeometry relative="1" as="geometry" />
        </mxCell>
        <mxCell id="mDHxfYU0JQhifHVUSU3j-103" value="Subscribe" style="swimlane;whiteSpace=wrap;html=1;" vertex="1" parent="1">
          <mxGeometry x="690" y="540" width="200" height="160" as="geometry" />
        </mxCell>
        <mxCell id="mDHxfYU0JQhifHVUSU3j-104" value="+ 覺d: string&lt;br&gt;+ clientName: string&lt;br&gt;-------------------------------------------" style="text;html=1;align=left;verticalAlign=middle;whiteSpace=wrap;rounded=0;" vertex="1" parent="mDHxfYU0JQhifHVUSU3j-103">
          <mxGeometry x="12.5" y="60" width="175" height="10" as="geometry" />
        </mxCell>
        <mxCell id="mDHxfYU0JQhifHVUSU3j-105" value="+ buyMovie();&lt;br&gt;+ requestMovie();&lt;br&gt;+ rentMovie();" style="text;html=1;align=left;verticalAlign=middle;whiteSpace=wrap;rounded=0;" vertex="1" parent="mDHxfYU0JQhifHVUSU3j-103">
          <mxGeometry x="13.5" y="110" width="175" height="10" as="geometry" />
        </mxCell>
        <mxCell id="mDHxfYU0JQhifHVUSU3j-116" value="" style="endArrow=none;html=1;rounded=0;" edge="1" parent="1">
          <mxGeometry width="50" height="50" relative="1" as="geometry">
            <mxPoint x="80" y="240" as="sourcePoint" />
            <mxPoint x="880" y="240" as="targetPoint" />
          </mxGeometry>
        </mxCell>
      </root>
    </mxGraphModel>
  </diagram>
</mxfile>
